<?xml version="1.0" encoding="utf-8"?>
<!-- Generator: Adobe Illustrator 27.0.1, SVG Export Plug-In . SVG Version: 6.00 Build 0)  -->
<svg version="1.1" id="Layer_1" xmlns="http://www.w3.org/2000/svg" xmlns:xlink="http://www.w3.org/1999/xlink" x="0px" y="0px"
	 viewBox="0 0 800 800" style="enable-background:new 0 0 800 800;" xml:space="preserve">
<style type="text/css">
	.st0{fill:#FFFFFF;}
	.st1{fill:#FFFFFF;stroke:#000000;stroke-width:6;stroke-miterlimit:10;}
</style>
<g>
	<g>
		<path d="M517.22,542.58c-0.97-10.87-3.96-21.1-9.51-30.55c-6.6-11.21-16.48-19.21-26.3-27.28
			c-24.76-20.36-52.68-24.17-82.42-14.46c-24.88,8.14-44.05,24.37-57.39,46.8c-11.99,20.16-14.61,41.42-4.12,63.3
			c7.44,15.52,19.04,27.33,32.88,37.21c20.49,14.64,43.37,22.16,68.42,21.12c21.18-0.88,40.74-8.03,57.2-21.69
			c8.42-6.98,16.18-15.26,18.56-26.51c2.16-10.27,3.16-20.76,4.42-29.43C518.27,553.65,517.71,548.13,517.22,542.58z M401.95,579.15
			c-10.9-6.86-14.92-19.74-10.76-33.52c7.88-26.06,39.81-37.47,60.13-21.22c3.78,3.02,6.72,7.35,9.33,11.53
			c3.45,5.57,7.04,11.21,5.53,18.53c-1.37,6.66-2.9,13.12-7.48,18.42c-5.38,6.24-12.66,9.23-20.27,11.39
			c-4.02,1.12-8.29,1.36-12.45,2C417.2,586.25,409.23,583.73,401.95,579.15z"/>
		<path class="st0" d="M366.39,598.95c-0.87-5.22,16.35-18.69,23.95-22.78c7.59-4.09,12.85-12.85,8.18-16.36
			c-4.67-3.5-26.28,2.34-44.98,12.85c-18.69,10.51-30.96,21.03-38.55,16.94c-7.59-4.09-49.65-25.7-49.65-25.7
			s-22.2,11.68-28.62,34.46c-6.42,22.78-1.17,57.24-1.17,57.24s96.96,35.05,101.05,40.89c4.09,5.84,22.78,41.47,35.05,49.65
			c12.27,8.18,17.52,7.01,15.77,0.58c-1.75-6.42-18.11-48.48-18.11-48.48s25.12,30.37,42.05,34.46c16.94,4.09,20.44,1.75,22.78-1.17
			c2.34-2.92,4.09-8.18,4.09-8.18s15.77-5.26,11.68-9.93c-4.09-4.67-20.44-13.43-31.54-21.03c-11.1-7.59-26.28-32.13-26.28-32.13
			s42.06,29.79,48.48,32.13c6.43,2.34,24.53,7.59,24.53-0.58c0-8.18-17.52-19.86-42.06-40.89
			C398.51,629.9,368.14,609.46,366.39,598.95z"/>
		<path d="M220.38,648.76c-6.96-36.17-3.57-67.39,29.07-89.84c-8.02-5.01-15.61-9.76-23.21-14.5
			c-13.53-8.44-27.49-16.29-40.45-25.54c-7.87-5.62-14.3-13.32-21.14-20.3c-1.68-1.71-3.03-4.21-3.43-6.54
			c-0.27-1.58,0.89-4.21,2.25-5.1c2.35-1.55,2.6,1.15,3.76,2.62c5.08,6.46,10.1,13.09,16.02,18.73c5.1,4.86,11.14,8.9,17.21,12.56
			c30.61,18.51,61.3,36.88,92.11,55.04c6.43,3.79,13.62,6.27,20.19,9.85c4.11,2.24,7.65,1.77,11.35-0.35
			c5.67-3.26,11.08-7.05,16.99-9.79c14.97-6.95,30.15-13.45,45.26-20.1c1.05-0.46,2.16-0.96,3.28-1.06
			c4.4-0.43,8.98-1.21,12.18,3.08c3.22,4.32,1.93,9-0.9,12.28c-4.57,5.3-10.09,9.81-15.41,14.43c-1.54,1.34-3.85,1.75-5.63,2.87
			c-11.91,7.47-12.94,9.56-3.94,21.35c5.5,7.2,13.33,12.69,20.42,18.59c11.82,9.85,23.74,19.6,35.9,29.02
			c6.06,4.69,12.61,8.79,19.19,12.74c7.28,4.36,13.24,9.89,17.41,17.28c3.28,5.81,1.11,10.79-5.49,11.9
			c-11.56,1.95-22.14-1.03-31.68-7.52c-9.54-6.5-18.83-13.35-28.23-20.04c-1.19-0.85-2.39-1.68-3.58-2.52
			c-0.36,0.36-0.72,0.71-1.08,1.07c4.38,4.6,8.22,9.94,13.26,13.62c8.67,6.32,18.19,11.47,27.17,17.39
			c4.14,2.73,8.34,5.68,11.63,9.33c5.4,6,2.96,13.16-4.92,14.77c-3.33,0.68-4.57,2.1-5.93,5.04c-2.74,5.94-8.76,7.7-14.52,7.66
			c-5.81-0.04-11.91-1.02-17.34-3.04c-9.79-3.66-18.42-9.54-25.71-17.18c-2.25-2.36-4.47-4.76-6.7-7.15
			c-0.34,0.21-0.68,0.42-1.03,0.63c1.47,3.18,2.82,6.42,4.45,9.52c3.86,7.31,7.92,14.51,11.76,21.83c1.71,3.25,3.44,6.7,0.53,10.2
			c-2.93,3.51-7.04,5.54-11.25,4.17c-4.97-1.62-10.6-3.62-13.93-7.29c-6.39-7.04-11.6-15.21-16.84-23.21
			c-3.35-5.13-6.18-10.67-8.68-16.27c-2.95-6.6-8.04-10.26-14.37-13.23c-28.91-13.58-58.83-24.39-89.17-34.32
			c-22.22-7.28-44.33-15.18-65.72-24.57c-19.29-8.46-38.13-18.35-56.1-29.34c-22.18-13.56-41.29-30.76-53.14-54.77
			c-5.81-11.78-9.28-24.14-8.84-37.16c0.43-12.99,0.68-26.29,3.64-38.83c5.78-24.5,19.79-44.06,41.48-57.31
			c7.8-4.76,16.37-8.36,24.85-11.84c2.76-1.13,9.09-0.61,9.17-0.11c0.76,4.82-3.7,5.65-6.9,6.76c-17.1,5.92-32.05,14.98-43.54,29.16
			c-10.82,13.36-18.5,28.23-20.58,45.56c-1.9,15.9-2.92,31.85,1.91,47.42c5.93,19.13,18,34.12,32.69,47.32
			c21.6,19.43,46.81,32.87,73.18,44.31C185.79,635.17,202.63,641.59,220.38,648.76z M434.66,725.59
			c-7.99-3.68-15.75-6.86-23.14-10.75c-14.17-7.45-24.92-18.54-32.83-32.4c-1.18-2.07-2.43-4.85,0.55-5.77
			c1.53-0.47,4.86,1.25,5.74,2.87c8.55,15.72,21.66,26.35,37.53,33.68c5.45,2.52,11.58,3.72,17.51,4.92
			c1.93,0.39,4.25-1.14,6.39-1.79c-1.12-1.85-1.8-4.34-3.42-5.43c-6.35-4.3-12.93-8.27-19.54-12.16
			c-14.9-8.77-27.97-19.17-33.28-36.61c-0.54-1.76-0.56-3.74-0.53-5.6c0.07-3.37,1.72-3.35,4.03-1.67
			c4.35,3.18,8.71,6.34,13.09,9.48c9.22,6.61,18.4,13.28,27.72,19.76c7.61,5.29,15.99,8.29,25.45,7.56
			c3.13-0.24,3.99-1.71,1.78-3.89c-3.95-3.88-7.99-7.75-12.42-11.05c-7.41-5.5-15.42-10.19-22.7-15.85
			c-11.53-8.95-22.83-18.21-33.9-27.72c-10.56-9.07-22.26-16.97-28.53-30.41c-2.11-4.52-2.15-8.07,0.49-10.95
			c3.94-4.3,8.91-7.68,13.53-11.33c5.23-4.14,10.73-7.94,15.72-12.33c1.47-1.29,1.64-4.07,2.4-6.17c-2.35-0.11-4.7-0.23-7.05-0.33
			c-0.18-0.01-0.36,0.13-0.53,0.21c-15.23,6.84-30.53,13.53-45.67,20.59c-5.56,2.59-10.75,5.98-16.06,9.09
			c-5.59,3.27-11.12,3.48-16.93,0.41c-12.74-6.72-25.73-13.01-38.31-20.02c-4.54-2.53-8.11-2.23-11.1,1.29
			c-4.32,5.09-8.67,10.32-11.95,16.1c-10.89,19.21-10.74,40.03-7.9,61.11c0.48,3.54,2.25,5.59,5.9,6.81
			c14.9,4.96,29.9,9.76,44.45,15.65c15.48,6.26,30.55,13.56,45.65,20.71c2.43,1.15,4.63,3.55,6.06,5.91
			c3.99,6.57,7.4,13.48,11.25,20.12c3.66,6.31,7.01,12.94,11.6,18.52c3.53,4.3,8.62,7.44,13.36,10.56c1.29,0.85,3.87-0.25,5.86-0.45
			c-0.23-1.69-0.03-3.61-0.77-5.05c-4.4-8.54-9.41-16.79-13.4-25.51c-2.51-5.49-3.91-11.58-5.15-17.53
			c-0.36-1.74,1.52-3.96,2.38-5.96c1.93,0.98,4.25,1.55,5.7,3c5.16,5.18,9.83,10.85,15.04,15.97c7.51,7.37,16.26,13.14,26.42,15.89
			C421.86,730.88,429.09,731.66,434.66,725.59z"/>
		<path class="st0" d="M625.15,600.7c0,0-33.88-2.92-35.05-10.51c-1.17-7.59-6.43-72.43-9.93-76.52c-3.5-4.09-8.18-8.76-12.27-0.58
			c-4.09,8.18-3.5,54.32-9.35,57.83c-5.84,3.5-5.26,8.76-28.62,2.34c-23.36-6.43-44.39-18.11-51.4-22.2
			c-7.01-4.09-30.37-19.86-34.46-14.02c-4.09,5.84-5.26,13.43,2.34,19.28c7.59,5.84,32.71,25.12,32.71,25.12
			s-36.21-19.86-42.06-16.94c-5.84,2.92-9.35,3.5-8.18,8.18c1.17,4.67,0.58,8.18,0.58,8.18s-4.67,10.51,0.58,19.28
			c5.26,8.76,9.35,14.02,9.35,14.02s30.96,14.02,37.38,15.77c6.42,1.75,15.77,6.43,15.77,6.43s-4.67,9.35-16.94,4.09
			s-18.11-14.02-18.11-14.02l-18.11-8.76c0,0,3.5,34.46,14.02,41.47s21.61,5.84,26.87,4.09c5.26-1.75,13.43-7.59,19.86-2.34
			c6.42,5.26,62.5,29.2,76.52,33.88c14.02,4.67,46.73,7.01,46.73,7.01s26.87-30.37,25.7-47.31
			C647.93,637.5,625.15,600.7,625.15,600.7z"/>
		<path d="M642.21,694.6c19.61-5.66,39.31-7.66,54.51-20.66c19.02-16.26,33.9-35.4,38.98-60.9c2.67-13.43,0.27-26.29-2.39-39.24
			c-5.35-26.04-14.6-50.58-29.7-72.56c-7.86-11.44-17.73-21.23-28.93-29.53c-10.2-7.56-20.35-15.2-30.74-22.49
			c-4.21-2.95-8.94-5.22-13.56-7.52c-2.61-1.3-5.26-2.67-3.88-5.91c1.42-3.34,4.56-2.5,6.85-0.98
			c13.73,9.14,27.44,18.32,40.98,27.75c5.96,4.16,11.83,8.58,17.15,13.51c22.22,20.58,35.83,46.59,44.04,75.16
			c4.47,15.55,6.7,31.94,8.12,48.11c1.48,16.76-2.24,33.03-12.3,47.02c-6.83,9.5-13.93,18.9-21.8,27.53
			c-10.28,11.27-24.19,16.79-38.42,21.21c-17.46,5.43-35.27,9.86-53.6,9.9c-21.47,0.05-42.26-3.55-61.69-13.89
			c-12.17-6.47-25.22-11.28-37.86-16.87c-6.33-2.8-12.5-5.99-18.97-8.39c-3.03-1.12-6.64-1.29-9.91-0.99
			c-6.47,0.59-12.86,2.42-19.32,2.63c-12.33,0.39-22.25-6.24-25.89-18.12c-2.95-9.64-4.11-19.82-6.35-29.69
			c-0.64-2.8-1.78-5.78-3.56-7.98c-4.9-6.04-10.27-11.97-9.01-20.36c0.96-6.39,1.68-12.55,1.18-19.1
			c-0.47-6.1,8.37-10.62,15.54-8.28c5.79,1.89,11.28,4.69,17.34,7.26c-4.91-4.31-9.98-7.9-13.9-12.48
			c-2.87-3.35-5.07-7.79-6.07-12.09c-2.02-8.72,3.62-14.15,12.5-12.96c7.39,0.99,13.9,3.98,20.09,8.07
			c10.09,6.66,19.87,14.04,30.68,19.27c13.55,6.56,28.13,10.89,43.24,12.68c4.77,0.57,9.81-3.52,11.05-9.71
			c1.35-6.73,1.68-13.68,2.35-20.54c0.83-8.37,1.02-16.86,2.58-25.09c0.68-3.58,3.48-7.36,6.38-9.79
			c5.52-4.62,12.03-2.83,14.22,3.98c2.22,6.88,3.68,14.1,4.58,21.28c1.58,12.55,2.29,25.21,3.76,37.78
			c0.58,4.91,2.3,9.67,3.35,14.54c0.67,3.13,2.85,4.3,5.61,4.87c16.39,3.38,32.73,4,49-0.72c2.21-0.64,4.48-1.23,6.76-1.45
			c1.08-0.11,2.25,0.69,3.38,1.07c-0.61,1.07-0.96,2.68-1.87,3.12c-5.09,2.5-10.32,4.71-14.65,6.65
			c3.96,8.41,8.93,17.02,12.16,26.25c4.45,12.7,5.29,26.22,1.72,39.16c-2.42,8.75-7.51,16.76-11.43,25.1
			C644.02,691.26,643.44,692.26,642.21,694.6z M444.49,621.51c1.56,10.93,2.65,21.58,8.94,30.73c3.18,4.64,7.87,7.59,13.4,8.14
			c4.32,0.43,8.9,0.17,13.12-0.83c8.52-2.03,16.39-3.24,25.08,0.82c16.13,7.54,33.29,12.94,49.19,20.89
			c17.83,8.92,36.03,15.07,56.02,15.63c3.21,0.09,5.44-0.51,7.95-3.08c9.92-10.13,14.16-22.62,15.91-36.13
			c2.68-20.74-3.03-39.19-16.37-55.25c-0.85-1.02-2.48-1.66-3.86-1.94c-5.06-1.02-10.22-1.6-15.25-2.74
			c-6.2-1.41-11.89-2.22-12.3-11.52c-0.61-13.89-3.44-27.69-5.39-41.51c-1.26-8.9-2.5-17.81-4.06-26.66
			c-0.31-1.78-2.01-3.32-3.07-4.97c-1.67,1.49-4.2,2.68-4.85,4.53c-1.45,4.1-2.39,8.48-2.77,12.82c-1.02,11.47-1.37,23-2.49,34.46
			c-0.87,8.9-9.69,17.12-17.36,15.82c-11.49-1.95-23.05-4.1-34.19-7.45c-15.2-4.57-28.73-12.72-41.47-22.18
			c-6.01-4.46-12.08-8.88-19.89-9.95c-4.68-0.64-6.45,0.86-4.36,5.08c1.92,3.87,4.55,7.76,7.82,10.49
			c5.87,4.89,12.18,9.4,18.8,13.21c13.28,7.63,26.93,14.61,40.31,22.07c1.46,0.81,2.14,3.03,3.18,4.59
			c-1.68,0.88-3.58,2.77-4.99,2.45c-3.69-0.84-7.17-2.62-10.72-4.06c-19.03-7.71-38.05-15.44-57.1-23.1
			c-1.74-0.7-3.73-1.43-5.51-1.25c-1.9,0.19-4.27,1.01-5.3,2.4c-0.63,0.85,0.5,3.56,1.51,4.95c1.45,1.99,3.39,3.69,5.33,5.25
			c16.55,13.26,35.61,20.99,56.2,25.25c3.07,0.63,7,0.95,6.27,4.95c-0.71,3.87-4.8,2.55-7.3,1.97
			c-20.56-4.76-40.13-11.89-57.05-25.01c-1.74-1.35-3.53-2.65-5.33-4c-2.89,5.1-1.29,9.45,1.43,13.31
			c8.61,12.23,20.65,19.85,34.55,24.72c8.69,3.04,17.49,5.77,26.22,8.68c2.79,0.93,5.5,2.5,3.22,5.72
			c-1.65,2.34-4.23,4.55-6.88,5.55c-14.47,5.45-30.3-0.78-36.95-14.85C452.11,625.19,449.36,622.96,444.49,621.51z M485.39,637.4
			c-7.13-2.4-14.25-4.8-22.32-7.51C468.81,639.46,476.67,639.88,485.39,637.4z"/>
		<path d="M228.81,366.67c-0.93,0.17-1.95,0.65-2.78,0.42c-0.91-0.25-1.93-1-2.34-1.81c-0.22-0.44,0.53-1.88,1.17-2.17
			c7.31-3.42,14.97-5.54,23.11-5.01c1.14,0.07,2.19,1.47,3.29,2.25c-0.96,0.92-1.78,2.38-2.9,2.67c-6.42,1.66-12.9,3.03-19.37,4.51
			C228.93,367.24,228.87,366.95,228.81,366.67z"/>
		<g>
			<path d="M626.38,431.22c-16.22-9.18-36.32-11.3-50.62-23.45c-89.76-76.2-56.06-16.58-85.56-16.32
				c-14.93,0.13-29.93,1.57-44.73,3.62c-12.08,1.67-24.15,4.36-35.78,8c-10.38,3.25-20.15,8.43-30.19,12.78
				c-8.08,3.5-16.15,7.04-24.23,10.54c-3.29,1.43-4.4,0.16-4.64-3.23c-0.48-6.52-1.22-13.03-2.12-19.51
				c-0.34-2.45,0.47-2.91,2.66-3.03c3.44-0.18,6.9-0.51,10.27-1.18c27.65-5.53,51.66-23.31,58.76-52.89
				c5.07-21.11,0.57-41.55-8.84-60.9c-3.76-7.73-3.89-7.67,1.74-13.95c15.5-17.28,9.1-38.62-1.6-48.94
				c-11.03-10.64-24.25-15.32-39.53-12.98c-10.32,1.58-16.73-4.64-25.68-8.12c-12.33-4.8-25.19-8.89-37.91-12.53
				c-21.93-6.28-49.99-3.47-70.88,5.12c-37.56,15.43-60.01,44.34-71.88,82.2c-3.59,11.45-4.76,23.6-1.98,35.31
				c5.16,21.74,14.3,41.87,29.48,58.58c7.17,7.9,14.8,15.57,25.74,18.79c9.84,2.9,19.45,6.61,29.16,9.97
				c-0.12,0.45-0.24,0.91-0.37,1.36c-6.08-0.58-12.15-1.63-18.23-1.64c-21.16-0.03-42.33-0.07-63.47,0.64
				c-10.31,0.35-20.61,2.09-30.82,3.77c-2.7,0.44-5.54,2.56-7.42,4.7c-1.53,1.73-0.93,4.26,2.41,3.96
				c3.42-0.31,6.89-0.52,10.21-1.32c10.15-2.45,20.45-2.72,30.81-2.76c12.32-0.04,24.64-0.27,36.96-0.34
				c9.46-0.05,18.92-0.11,28.37,0.09c5.95,0.13,11.88,0.86,17.83,1.1c2.17,0.09,5.47,0.43,4.93-3.01c-0.4-2.57,0.49-2.99,2.29-4.09
				c2.24-1.38,4.21-3.4,5.85-5.49c3.12-3.98,2.61-7.33-1.43-10.41c-2.29-1.74-4.74-3.31-7.27-4.68c-4.45-2.41-10-4.01-5.41-11
				c0.54-0.82-0.84-2.91-1.33-4.41c-1.41,0.73-3.08,1.2-4.16,2.26c-1.34,1.32-2.1,3.2-3.24,4.74c-5.2,7.04-11.54,11.85-20.96,10.54
				c-5.97-0.83-10.31-4.08-14.58-8.27c-6.84-6.73-7.37-16.29-0.16-22.64c6.19-5.45,12.76-7.59,21.12-3.76
				c6.34,2.91,13.41,4.65,20.34,5.65c2.65,0.38,6.99-2.07,8.38-4.48c1.23-2.13,0.33-6.6-1.23-8.98c-2.7-4.11-6.26-7.88-10.14-10.93
				c-10.43-8.2-21.14-16.03-31.9-23.8c-2.9-2.1-4.32-4.01-2.59-7.57c3.61-7.42,1.93-14.4-1.72-21.38
				c-2.75-5.27-4.84-10.88-7.27-16.31c-0.97-2.16-1.47-3.44,1.7-4.6c7.37-2.7,14.66-5.76,21.68-9.27
				c25.08-12.53,48.96-26.9,67.97-47.97c3.14-3.48,5.98-4.67,10.27-3.72c15.8,3.5,31.11,8.4,45.56,15.79
				c1.26,0.65,2.38,1.58,3.89,2.6c-2.18,1.31-3.83,2.28-5.45,3.29c-13.53,8.44-18.66,22.31-13.45,37.41
				c5.79,16.76,17.21,27.4,34.83,30.98c6.97,1.42,7.16,1.65,6.06,8.66c-0.65,4.16-1.96,8.23-2.42,12.4
				c-0.19,1.72,1.03,3.6,1.61,5.41c1.51-1.24,3.82-2.2,4.37-3.78c1.31-3.76,1.99-7.77,2.58-11.74c1.36-9.14,1.28-9.15,10.05-11.55
				c2.87-0.79,6.61-3.11,8.39-2.06c2.4,1.4,3.39,5.33,4.8,8.27c7.72,16.19,11.24,33.37,8.03,50.96
				c-4.11,22.49-18.13,37.59-39.13,46.38c-10.2,4.27-20.6,6.61-31.82,5.6c-9.07-0.82-18.24-0.6-27.35-1.01
				c-2.63-0.12-5.52-0.54-5.9,2.8c-0.37,3.28,2.36,3.88,5.08,4.05c7.09,0.45,14.19,0.83,21.25,1.59c1.44,0.15,3.71,1.65,3.91,2.81
				c1.27,7.55,2.35,15.16,2.97,22.79c0.67,8.34,3.22,10.73,10.94,7.85c9.67-3.61,19-8.14,28.55-12.06
				c14.17-5.82,28.04-12.85,42.74-16.76c14.32-3.82,29.5-4.46,44.32-6.33c19.82-2.5,39.51-0.93,59,2.89
				c33.26,6.52,64.48,18.71,94.33,34.63c3.05,1.63,6.26,4.98,10.33,1.77C631.15,436.17,629.25,432.84,626.38,431.22z M394.38,276.67
				c-4.4,1.63-9.21,2.15-13.83,3.18c-22.64-0.23-37.17-17.21-39.33-33.36c-1.38-10.27,2.51-18.23,11.1-23.49
				c12.78-7.83,26.78-9.92,40.75-4.3c11.82,4.76,20.61,13.03,22.16,26.89C416.96,261.13,405.18,272.67,394.38,276.67z"/>
			<path d="M328.19,289.61c1.39-10.33-2.15-19.72-6.59-28.72c-6.71-13.57-16.26-24.14-32.44-25.14c-7.13-0.44-14.62,0.37-21.56,2.12
				c-16.12,4.08-27.2,14.25-31.13,30.68c-4.03,16.84-0.65,32.13,12.71,44.05c9.6,8.56,21.29,11.81,34.05,12.22
				c4.36-0.56,8.83-0.64,13.04-1.75C313.7,318.5,325.66,308.41,328.19,289.61z M305.05,312.5c-15.53,8.58-38.75,6.5-51.45-4.95
				c-11.67-10.52-14.11-23.99-10.23-38.5c3.92-14.66,14.55-22.58,29.1-25.5c3.74-0.75,7.57-1.07,11.36-1.59
				c11.74,0.12,21.06,4.36,26.66,15c3.55,6.74,7.75,13.39,9.8,20.6C324.52,292.47,318.51,305.07,305.05,312.5z"/>
			<path d="M369.54,336.83c0.88,0.58,2.1,0.97,3.11,0.87c0.51-0.05,0.88-1.42,1.41-2.35c-0.69-1.05-1.18-2.09-1.93-2.87
				c-8.39-8.71-25.79-7.91-33.12,1.62c-0.75,0.97-0.52,2.7-0.75,4.07c1.38-0.21,2.91-0.11,4.12-0.69c2.38-1.13,4.42-3.08,6.87-3.9
				C356.49,331.14,363.25,332.66,369.54,336.83z"/>
			<path d="M359.5,252.23c-1.95,0.99-4.48,2.77-2.25,5.31c2.35,2.67,5.21,5.03,8.22,6.94c2.2,1.4,5.65-0.93,5.84-3.46
				C371.59,257.51,362.61,250.66,359.5,252.23z"/>
			<path d="M290.91,274.71c-0.66,1.04-2.82,3.62-2.48,4.01c2.39,2.73,5.3,5.01,8.04,7.44c1.16-1.41,3.15-2.73,3.32-4.26
				C300.14,278.89,295.1,274.62,290.91,274.71z"/>
			<path d="M307.44,155.3c0.75-0.33,1.47-0.69,1.94-1.4c1.69-2.53,0.64-5.55,0.88-8.41c0.11-1.31,0.24-4.29,1.85-4.3
				c2.62-0.01,3.52,5.33,3.78,7.08c0.31,2.05-0.51,6.93,1.46,8.31c2.73,1.92,4.99-2.99,5.49-4.88c0.84-3.2,0.33-7.08-0.51-10.24
				c-1.72-6.45-7.7-11.23-13.79-6.07c-4.95,4.2-7.86,14.51-3.07,19.7C305.87,155.54,306.96,155.51,307.44,155.3z"/>
			<path d="M345.08,132.92c-0.42-5.2,1.08-11.3,4.1-15.58c1.52-2.16,6.79-7.41,9.25-3.79c3.37,4.96-1.84,12.51-0.96,17.75
				c0.13,0.75,1.09,0.85,1.61,0.46c5.23-3.88,9.22-21.71,1.57-25.04c-5.23-2.27-11.56,3.17-14.4,6.99
				c-4.3,5.78-6.75,13.63-4.09,20.58C342.84,136.04,345.19,134.28,345.08,132.92z"/>
			<path d="M358.01,184.54c0.37,0.65,1.29,0.54,1.83,0.2c-0.41,0.23-0.3,0.33,0.3,0.32c0.64,0.15,1.5-0.86,1.08-1.45
				c-0.69,0.6-0.81,0.58-0.34-0.04c0.12-0.22,0.19-0.46,0.21-0.7c0.03-0.61-0.07-1.03,0.14-1.61c0.44-1.23,1.89-2.37,2.89-3.15
				c2.19-1.71,6.2-4.24,8.71-1.83c4.71,4.52-5.61,13.21-8.8,15.75c-0.65,0.51-1.15,2.01-0.09,2.37c5.07,1.74,10.45-4.54,12.84-8.12
				c2.83-4.24,5.77-11.31,0.99-15.35c-4.37-3.7-9.99-0.92-13.89,2.06C360.9,175.27,355.57,180.28,358.01,184.54z"/>
		</g>
		<path d="M629.79,408.94c-1.05-0.28-1.7-1.99-2.56-2.99c-3.65-4.19-7.01-8.68-11.02-12.49c-13.52-12.89-27.24-25.54-40.91-38.26
			c-23.78-22.12-47.55-44.27-71.44-66.28c-1.94-1.8-4.78-2.64-7.2-3.93c-5.83,0.37-9.12,4.12-12.15,7.34
			c-14.21,15.14-28.22,30.46-42.1,45.9c-13.87,15.44-27.47,31.15-41.25,46.67c-1.75,1.96-3.11,3.88-2.97,6.22
			c-0.39,0.45-0.73,0.89-0.98,1.28c-2.25,3.45-2.18,7.38,1.4,9.82c0.51,0.34,1.05,0.49,1.59,0.48c0.86,1.22,2.07,2.31,3.34,3.43
			c6.92,6.1,13.89,12.19,20.47,18.67c21.53,21.16,42.85,42.56,64.38,63.75c8.35,8.22,17.17,15.97,25.54,24.18
			c5.38,5.29,9.22,6.18,15.01,1.25c8.63-7.31,17-14.94,25.11-22.83c16.94-16.51,33.59-33.31,50.45-49.89
			c8.62-8.48,17.49-16.68,26.06-25.19C632.86,413.81,636.53,410.69,629.79,408.94z"/>
		<path class="st1" d="M400.9,462.68c-13.95,7.71-28.05,15.18-42.4,22.1c-27.17,13.12-54.36,26.22-81.92,38.46
			c-15.03,6.67-30.75,11.81-46.32,17.2c-6.77,2.34-10.68-1.49-11.3-11.75c0.52-3.88,1.39-9.56,2.05-15.24
			c1.51-12.92,2.91-25.85,4.39-38.77c1.23-10.67,2.51-21.33,3.81-32c1.4-11.61,2.84-23.21,4.25-34.83
			c2.07-16.94,4.08-33.9,6.24-50.84c1.22-9.51,2.47-19.02,4.22-28.44c0.45-2.41,2.48-5.32,4.59-6.35c1.4-0.68,4.69,1.06,6.35,2.57
			c14.94,13.55,29.35,27.7,44.59,40.89c23.69,20.5,47.84,40.48,71.94,60.5c9.91,8.23,20.11,16.11,30.27,24.03
			C408.03,455.21,408.17,458.66,400.9,462.68z"/>
		<path d="M555.72,98.24c-3.88,5.95-7.88,11.85-12.01,17.63c-12.49,17.49-24.96,34.99-37.66,52.31c-5.06,6.91-11.56,6.75-15.57-0.77
			c-4.49-8.4-8.11-17.33-11.53-26.23c-7.83-20.44-14.63-41.31-25.59-60.41c-3.14-5.49-7.07-10.53-10.56-15.81
			c-1.36-2.08-2.85-4.18-3.67-6.49c-2.08-5.95,0.72-9.48,8.6-9.03c7.68,2.08,17.09,4.12,26.14,7.18
			c24.03,8.14,47.4,17.91,69.9,29.67c4.07,2.14,7.97,4.61,11.99,6.83C559.05,94.91,556.68,96.76,555.72,98.24z"/>
		<path class="st1" d="M621.49,304.93c-3.45,12.36-8.11,24.4-15.65,35.1c-5.53,7.85-13.41,11.9-22.23,14.4
			c-1.57,0.45-4.1-0.71-5.55-1.9c-7.61-6.17-15.03-12.58-22.49-18.94c-2.91-2.48-5.78-5.06-8.63-7.62
			c-5.19-4.62-5.56-7.49-2.44-13.66c5.61-11.04,10.22-22.4,10.27-35.07c0.08-20.01-19.87-41.83-42.7-40.42
			c-15.58,0.96-30.37,4.45-43.5,13.29c-3.7,2.5-7.29,2.54-10.62-0.25c-6.18-5.19-12.36-10.42-18.17-16.01
			c-4.35-4.18-4.62-8.91,0.12-13.15c7.41-6.61,15.31-12.81,23.61-18.28c24.42-16.09,55.74-25.51,84.86-18.98
			c30.5,6.84,56.88,34.69,67.24,63.51C622.33,265.67,627.07,285.02,621.49,304.93z"/>
	</g>
	<path d="M189.67,344.99c15.38,15.38,16.24-62.03,50.73-96.53s81.23-49.22,44.57-103.35c-20.14-29.73-71.71,8.11-100.25,47.66
		C126.92,272.86,174.29,329.62,189.67,344.99z"/>
	<path d="M167.21,314.64c0,0-27.09,15.69-27.86,1.5c-0.78-14.19,25.56-13.35,25.56-13.35s-21.24,3.07-21.37-5.75
		c-0.13-8.82,22.46-3.19,22.46-3.19L167.21,314.64z"/>
</g>
</svg>
